<svg xmlns="http://www.w3.org/2000/svg" viewBox="0 0 470.25 196.9"><defs><style>.cls-1{fill:#009fc0;stroke:#000;stroke-miterlimit:10;}.cls-2{fill:#ccc;}</style></defs><title>Asset 2</title><g id="Layer_2" data-name="Layer 2"><g id="Layer_1-2" data-name="Layer 1"><rect class="cls-1" x="273.85" y="0.5" width="195.9" height="195.9"/><rect class="cls-1" x="106.42" y="30.11" width="136.67" height="136.67"/><rect class="cls-1" x="0.5" y="59.73" width="77.45" height="77.45"/><rect x="106.42" y="76.24" width="136.67" height="44.42"/><rect x="26.05" y="85.84" width="51.33" height="25.22"/><polygon class="cls-2" points="371.47 145.48 395.71 105.72 447.71 145.85 396.04 184.2 371.47 145.48"/><path d="M395.85,106.46l51,39.38-50.71,37.64-24.11-38,23.79-39m-.27-1.47-24.7,40.49,25,39.44,52.64-39.06-53-40.87Z"/><polygon class="cls-2" points="371.47 53.63 396.16 13.14 447.72 53.99 395.71 93.39 371.47 53.63"/><path d="M396.29,13.89,446.91,54,395.85,92.66l-23.8-39,24.24-39.74M396,12.4,370.88,53.62l24.7,40.5,53-40.12L396,12.4Z"/><rect x="273.85" y="65.99" width="84.28" height="64.92"/></g></g></svg>