<svg xmlns="http://www.w3.org/2000/svg" viewBox="0 0 523.1 371.69"><defs><style>.cls-1{fill:gold;}.cls-1,.cls-2,.cls-3{stroke:#000;stroke-miterlimit:10;}.cls-2{fill:none;}.cls-4{fill:#ccc;}</style></defs><title>Asset 3</title><g id="Layer_2" data-name="Layer 2"><g id="Layer_1-2" data-name="Layer 1"><polygon class="cls-1" points="201.73 370.55 254.9 185.85 202.44 1.14 357.83 101.38 522.01 186.47 357.5 270.91 201.73 370.55"/><polygon class="cls-1" points="1.14 92.05 184.18 92.05 202.44 157.65 15.2 157.65 1.14 92.05"/><polygon class="cls-1" points="0.62 279.65 184.18 279.65 202.44 214.06 15.2 214.06 0.62 279.65"/><line class="cls-2" x1="15.2" y1="214.06" x2="202.44" y2="214.06"/><polygon class="cls-3" points="24.88 108.36 403.98 108.36 444.18 141.34 32.06 141.34 24.88 108.36"/><polygon class="cls-3" points="24.88 263.35 403.98 263.35 444.18 230.36 32.06 230.36 24.88 263.35"/><polygon class="cls-4" points="300.39 233.66 324.63 193.91 376.63 234.03 324.96 272.39 300.39 233.66"/><path d="M324.77,194.64l51,39.38-50.71,37.64-24.11-38,23.79-39m-.28-1.47-24.69,40.5,25,39.44L377.46,234l-53-40.87Z"/><polygon class="cls-4" points="300.39 141.81 325.08 101.33 376.64 142.17 324.63 181.57 300.39 141.81"/><path d="M325.21,102.07l50.62,40.09-51.06,38.68-23.8-39,24.24-39.74m-.27-1.48L299.8,141.81l24.69,40.49,53-40.12-52.52-41.59Z"/></g></g></svg>