<svg xmlns="http://www.w3.org/2000/svg" viewBox="0 0 434 332.41"><defs><style>.cls-1{fill:#00c055;}.cls-2{fill:#ccc;}.cls-3{fill:#009245;}</style></defs><title>Asset 1</title><g id="Layer_2" data-name="Layer 2"><g id="Layer_1-2" data-name="Layer 1"><polygon class="cls-1" points="0.82 171.9 217.59 0.64 433.18 171.4 217.09 331.79 0.82 171.9"/><path d="M217.59,1.28,432.36,171.39,217.09,331.17,1.65,171.89,217.59,1.28m0-1.28L0,171.91l217.09,160.5L434,171.41,217.59,0Z"/><polygon class="cls-2" points="277.59 216.41 302.14 176.15 354.8 216.78 302.47 255.62 277.59 216.41"/><path d="M302.27,176.89,354,216.78,302.6,254.9l-24.42-38.5,24.09-39.51m-.27-1.48-25,41,25.33,39.93,53.29-39.55L302,175.41Z"/><polygon class="cls-2" points="277.59 123.41 302.59 82.42 354.81 123.78 302.14 163.68 277.59 123.41"/><path d="M302.72,83.16,354,123.77,302.28,163l-24.11-39.54,24.55-40.25m-.26-1.48L277,123.41l25,41,53.62-40.62L302.46,81.68Z"/><polygon points="121.97 171.87 258.78 133 283.39 170.4 258.79 204.85 121.97 171.87"/><path d="M258.57,133.58l24.22,36.81-24.21,33.89L123.94,171.83l134.63-38.25m.43-1.17-139,39.5,139,33.5,25-35-25-38Z"/><polygon class="cls-1" points="0.82 171.9 85.58 104.94 169.88 171.7 85.38 234.42 0.82 171.9"/><path d="M85.58,105.57l83.47,66.12L85.38,233.8,1.65,171.89l83.93-66.32m0-1.27L0,171.91,85.38,235l85.32-63.32L85.58,104.3Z"/><polygon class="cls-3" points="106.18 171.86 157.49 131.32 208.52 171.74 157.37 209.71 106.18 171.86"/><path d="M157.49,132l50.21,39.77-50.33,37.36L107,171.85,157.49,132m0-1.28-52.14,41.2,52,38.45,52-38.57-51.85-41.08Z"/></g></g></svg>