<svg xmlns="http://www.w3.org/2000/svg" viewBox="0 0 408.5 309.73"><defs><style>.cls-1{fill:#ff0dff;}.cls-1,.cls-2{stroke:#000;stroke-miterlimit:10;}.cls-3{fill:#ccc;}</style></defs><title>Asset 4</title><g id="Layer_2" data-name="Layer 2"><g id="Layer_1-2" data-name="Layer 1"><polygon class="cls-1" points="58.91 53.57 175.59 53.57 233.92 154.61 175.59 255.65 58.91 255.65 0.58 154.61 58.91 53.57"/><polygon class="cls-1" points="318.8 0.5 140.56 0.5 51.43 154.87 140.56 309.23 318.8 309.23 407.93 154.87 318.8 0.5"/><polygon class="cls-2" points="160.77 53.57 298.91 53.57 357.25 154.61 298.91 255.65 160.77 255.65 102.43 154.61 160.77 53.57"/><polygon class="cls-3" points="284.32 203.05 309.87 161.14 364.68 203.44 310.21 243.87 284.32 203.05"/><path d="M310,161.88l53.84,41.55-53.5,39.72L284.91,203,310,161.88m-.28-1.47-26,42.64,26.35,41.54,55.43-41.14-55.78-43Z"/><polygon class="cls-3" points="284.32 106.32 310.34 63.65 364.69 106.7 309.87 148.23 284.32 106.32"/><path d="M310.47,64.39l53.41,42.3L310,147.5,284.9,106.32l25.57-41.93m-.26-1.48-26.48,43.41,26,42.65,55.78-42.26-55.3-43.8Z"/></g></g></svg>